<?xml version="1.0" standalone="no"?>
<!DOCTYPE svg PUBLIC "-//W3C//DTD SVG 20010904//EN"
 "http://www.w3.org/TR/2001/REC-SVG-20010904/DTD/svg10.dtd">
<svg version="1.0" xmlns="http://www.w3.org/2000/svg"
 width="674.000000pt" height="342.000000pt" viewBox="0 0 674.000000 342.000000"
 preserveAspectRatio="xMidYMid meet">
<metadata>
Created by potrace 1.16, written by Peter Selinger 2001-2019
</metadata>
<g transform="translate(0.000000,342.000000) scale(0.100000,-0.100000)"
fill="#00E5F0" stroke="none">
<path d="M815 2854 c-652 -375 -720 -416 -751 -448 -29 -30 -33 -42 -39 -117
-4 -46 -5 -340 -3 -654 2 -461 6 -575 17 -597 19 -37 55 -60 561 -350 496
-285 577 -328 611 -328 38 0 104 35 531 280 541 312 616 357 636 388 15 24 17
79 20 632 2 333 0 630 -3 660 -6 45 -13 61 -43 90 -35 34 -217 143 -816 486
-247 141 -262 148 -320 151 l-61 3 -340 -196z m783 -603 l372 -215 0 -182 0
-183 -376 216 -376 216 -31 -16 c-18 -9 -187 -106 -377 -216 -190 -109 -348
-196 -353 -192 -4 4 -6 85 -5 180 l3 173 375 218 c206 120 380 218 385 217 6
-1 178 -98 383 -216z m-319 -331 c67 -33 608 -340 661 -374 l35 -23 -3 -114
-3 -115 -52 -29 c-28 -17 -55 -31 -58 -33 -3 -1 -148 79 -323 178 l-316 181
-131 -72 c-72 -39 -217 -120 -321 -180 l-191 -109 -63 35 -64 36 0 109 0 110
38 24 c85 55 706 406 719 406 7 0 40 -13 72 -30z m132 -589 c308 -172 311
-174 297 -187 -7 -7 -77 -49 -155 -94 l-142 -82 -93 53 c-51 29 -98 52 -103
52 -6 0 -51 -23 -99 -52 l-89 -52 -51 27 c-55 29 -258 145 -266 152 -3 2 2 8
10 13 55 34 485 279 490 279 3 0 94 -49 201 -109z"/>
</g>
<g transform="translate(0.000000,342.000000) scale(0.100000,-0.100000)"
fill="#0E546C" stroke="none">
<path d="M845 2255 c-204 -118 -374 -216 -378 -217 -12 -5 -20 -330 -9 -347 8
-11 80 26 364 189 194 112 362 209 373 216 18 11 59 -10 385 -198 201 -116
371 -212 378 -215 9 -4 12 35 12 173 l0 179 -322 185 c-177 102 -347 199 -378
217 l-55 32 -370 -214z"/>
<path d="M819 1741 l-364 -208 -3 -119 -3 -119 59 -33 c33 -17 64 -32 70 -32
5 0 81 41 168 91 247 141 461 259 473 259 8 0 454 -251 601 -338 l35 -21 62
39 61 38 -1 117 -2 118 -200 114 c-402 231 -536 303 -565 303 -18 0 -155 -73
-391 -209z"/>
<path d="M1134 1404 c-95 -50 -396 -225 -411 -238 -7 -6 -9 -16 -5 -22 7 -10
146 -94 251 -150 l53 -28 47 25 c25 13 69 37 96 53 l51 29 92 -53 c52 -29 101
-50 111 -47 29 7 301 168 301 177 0 16 -442 268 -496 284 -14 4 -44 -6 -90
-30z"/>
</g>
<g transform="translate(0.000000,342.000000) scale(0.100000,-0.100000)"
fill="#ffffff" stroke="none">
<path d="M3349 3377 l-34 -23 -3 -390 -2 -390 30 -29 c40 -38 73 -36 162 8
119 59 376 215 392 239 34 48 7 127 -52 149 -34 13 -75 -1 -205 -73 -59 -33
-110 -58 -113 -56 -2 3 -8 126 -12 273 l-7 267 -28 24 c-36 31 -83 31 -128 1z"/>
<path d="M6154 3381 c-47 -21 -223 -122 -332 -189 -44 -26 -80 -57 -90 -76
-16 -29 -17 -119 -20 -1186 -2 -680 1 -1208 6 -1285 10 -124 11 -130 38 -153
23 -20 35 -23 71 -19 27 3 54 14 69 28 l24 22 1 1151 c1 633 4 1193 8 1245 l6
95 164 98 c90 53 174 107 187 119 29 27 40 79 24 110 -31 59 -84 73 -156 40z"/>
<path d="M2949 3151 c-20 -16 -25 -32 -30 -102 -10 -113 -10 -1675 0 -1768 7
-70 9 -76 48 -110 34 -30 273 -172 380 -225 49 -25 87 -19 172 24 206 103 365
209 380 253 7 18 11 129 11 277 l0 248 -35 31 c-47 41 -93 42 -137 2 l-33 -29
-5 -221 -5 -221 -139 -80 c-76 -44 -143 -80 -150 -79 -6 0 -72 37 -146 82
l-135 82 -5 904 -5 903 -28 24 c-36 30 -104 33 -138 5z"/>
<path d="M6424 3089 c-219 -128 -294 -180 -302 -209 -4 -14 -7 -191 -7 -393
l0 -369 33 -29 c44 -39 90 -39 134 0 l33 29 3 334 4 334 83 47 c45 26 85 47
87 47 3 0 8 -70 12 -156 7 -153 7 -156 34 -180 37 -32 82 -40 120 -20 61 32
62 35 62 322 l0 262 -35 31 c-60 53 -96 46 -261 -50z"/>
<path d="M4494 2891 c-50 -27 -147 -82 -215 -123 -167 -99 -159 -80 -159 -379
0 -135 4 -249 10 -265 7 -20 32 -44 74 -71 81 -53 331 -195 373 -212 41 -17
66 -8 207 69 61 33 114 60 118 60 4 0 8 -46 8 -102 l0 -103 -123 -69 c-268
-152 -306 -192 -257 -271 25 -40 60 -57 97 -46 71 20 407 214 456 262 l27 27
0 270 0 270 -31 26 c-18 16 -43 26 -61 26 -33 0 -123 -44 -288 -139 -58 -34
-109 -61 -115 -61 -6 0 -71 35 -145 78 l-135 78 -3 171 -2 171 57 32 c185 103
312 184 322 206 15 34 14 59 -4 94 -34 66 -89 66 -211 1z"/>
<path d="M5341 2921 c-29 -22 -39 -80 -40 -238 -1 -58 -5 -103 -11 -103 -5 0
-33 14 -61 31 -96 56 -188 99 -214 99 -47 0 -403 -193 -469 -255 -20 -19 -26
-33 -26 -68 0 -36 6 -49 33 -75 18 -18 40 -32 48 -32 20 0 146 62 284 139 60
33 118 61 127 61 10 0 69 -29 131 -64 255 -145 277 -151 333 -102 27 22 28 28
35 160 5 76 4 200 0 277 -7 126 -10 142 -31 164 -30 32 -102 35 -139 6z"/>
<path d="M3734 2466 c-66 -31 -250 -136 -335 -192 -40 -26 -71 -55 -78 -72 -8
-20 -11 -135 -9 -401 l3 -373 28 -24 c40 -34 97 -33 138 4 l31 28 -1 154 c-1
85 1 236 5 336 l7 181 139 79 c221 126 261 163 244 228 -10 40 -53 76 -90 76
-17 0 -54 -11 -82 -24z"/>
<path d="M6545 2019 c-22 -12 -121 -69 -219 -128 -122 -72 -185 -116 -198
-136 -17 -28 -18 -68 -18 -691 l0 -662 -157 -88 c-189 -107 -233 -145 -233
-198 0 -30 7 -45 35 -73 40 -40 51 -40 142 2 66 30 341 189 379 220 l29 23 7
269 c3 147 7 453 7 678 l1 410 156 90 c177 103 229 143 237 182 11 60 -43 124
-105 123 -13 -1 -41 -10 -63 -21z"/>
<path d="M5339 2011 c-29 -23 -38 -95 -39 -316 l0 -160 -332 -190 c-198 -113
-342 -189 -355 -188 -13 1 -81 35 -152 75 l-129 73 -4 210 c-4 221 -10 253
-52 274 -42 22 -95 18 -124 -9 -22 -20 -22 -26 -22 -304 l0 -283 43 -30 c59
-42 251 -155 338 -199 117 -58 102 -63 489 159 348 199 452 262 479 291 22 23
25 38 32 148 8 141 2 358 -13 405 -5 18 -19 40 -31 48 -30 21 -100 19 -128 -4z"/>
</g>
<g transform="translate(0.000000,342.000000) scale(0.100000,-0.100000)"
fill="#000000" stroke="none">
<path d="M3350 3399 c-19 -12 -45 -30 -57 -42 l-23 -20 0 -392 0 -392 47 -37
c28 -22 57 -36 75 -36 50 0 431 212 496 276 25 25 32 40 32 71 0 78 -71 143
-141 129 -19 -3 -82 -32 -140 -64 l-107 -59 -4 226 c-4 182 -8 235 -22 274
-31 83 -87 107 -156 66z m93 -27 c35 -38 40 -76 46 -324 4 -139 11 -252 16
-257 7 -7 51 13 128 56 135 75 179 85 219 54 30 -24 45 -79 30 -107 -19 -36
-415 -267 -478 -280 -24 -4 -37 0 -62 21 l-32 27 0 384 0 384 42 30 c47 34 68
37 91 12z"/>
<path d="M6047 3347 c-184 -95 -325 -186 -350 -227 l-22 -35 -3 -1145 c-2
-695 0 -1204 7 -1295 9 -149 10 -150 40 -177 56 -50 99 -49 169 4 l42 32 0
1241 0 1240 119 68 c192 110 254 156 268 200 16 48 1 90 -46 130 -50 42 -83
36 -224 -36z m206 9 c32 -30 41 -63 28 -99 -11 -29 -73 -72 -261 -184 l-115
-68 -6 -150 c-4 -82 -7 -641 -8 -1242 l-1 -1091 -31 -26 c-38 -32 -79 -33
-115 -3 -27 24 -27 25 -36 208 -5 101 -8 674 -5 1274 3 867 6 1096 17 1117 15
32 71 70 256 175 142 81 206 112 235 112 9 1 28 -10 42 -23z"/>
<path d="M2943 3170 c-17 -10 -37 -29 -44 -42 -20 -36 -33 -875 -22 -1445 10
-535 5 -502 86 -560 68 -49 359 -212 399 -225 47 -14 105 7 248 87 179 100
280 172 296 210 11 27 14 91 14 294 l0 259 -41 35 c-66 57 -113 54 -187 -11
l-33 -29 3 -215 3 -215 -134 -77 -133 -76 -129 76 -129 76 0 396 c0 219 -3
624 -6 902 -6 496 -7 505 -28 529 -24 27 -75 51 -108 51 -13 0 -37 -9 -55 -20z
m124 -44 l27 -24 4 -901 c3 -652 8 -903 16 -910 6 -5 73 -45 148 -89 l137 -80
138 80 c76 44 144 84 151 90 9 8 12 66 12 229 l0 218 33 25 c45 35 78 33 122
-6 l36 -31 -3 -260 -3 -259 -31 -27 c-81 -73 -405 -251 -455 -251 -55 0 -424
210 -463 263 -21 28 -21 38 -24 845 -2 449 -1 873 3 941 7 112 10 126 31 148
31 31 84 31 121 -1z"/>
<path d="M6525 3174 c-76 -40 -249 -143 -337 -201 -87 -56 -99 -68 -108 -103
-7 -26 -10 -168 -8 -404 l3 -364 25 -27 c56 -61 122 -63 185 -8 l30 26 3 333
3 333 69 40 69 40 3 -147 3 -146 43 -33 c57 -44 103 -44 160 -3 l42 30 0 288
0 288 -27 26 c-55 51 -103 60 -158 32z m124 -50 l31 -26 0 -268 0 -268 -31
-26 c-41 -35 -80 -34 -121 3 l-33 29 -5 160 -5 161 -97 -56 -98 -55 -1 -262
c-1 -344 -7 -412 -39 -437 -28 -21 -71 -25 -101 -9 -46 25 -49 47 -49 408 0
187 3 354 6 372 8 37 61 75 308 219 156 91 185 97 235 55z"/>
<path d="M4543 2941 c-55 -25 -312 -174 -384 -222 -38 -26 -60 -49 -68 -70
-12 -35 -14 -496 -2 -539 10 -35 80 -85 290 -205 131 -74 194 -105 217 -105
30 0 118 41 232 107 l42 25 0 -84 0 -83 -157 -90 c-234 -135 -275 -185 -223
-270 42 -69 92 -80 176 -41 69 32 251 137 351 203 69 45 84 60 93 91 5 21 10
147 10 288 l0 251 -45 42 c-25 23 -54 41 -68 41 -30 0 -151 -59 -296 -144
l-113 -67 -135 78 -135 78 6 95 c3 52 6 122 6 155 l0 61 157 89 c86 50 167 99
181 109 63 49 61 138 -3 195 -41 36 -72 39 -132 12z m121 -52 c34 -40 35 -92
2 -122 -13 -12 -98 -65 -189 -117 l-164 -94 -7 -105 c-3 -57 -6 -136 -6 -175
l0 -72 125 -73 c189 -110 154 -110 353 3 104 59 186 100 209 103 33 4 42 1 71
-30 l34 -35 -4 -257 -3 -257 -33 -28 c-40 -33 -260 -165 -357 -214 -104 -52
-119 -54 -155 -18 -40 40 -41 88 -2 124 31 30 160 112 280 178 l82 45 0 108
c0 82 -3 109 -14 113 -7 3 -37 -9 -66 -26 -86 -51 -208 -110 -226 -110 -33 0
-413 221 -452 263 -23 24 -23 28 -25 279 -2 219 0 257 14 278 9 14 86 65 170
115 296 172 317 179 363 124z"/>
<path d="M5344 2950 c-36 -14 -74 -69 -75 -108 -1 -20 -4 -82 -8 -138 l-6
-101 -105 58 c-141 79 -155 79 -314 -4 -149 -78 -293 -167 -329 -203 -52 -52
-48 -105 12 -166 27 -26 47 -38 68 -38 34 0 123 42 283 134 63 36 121 66 127
66 7 0 41 -17 75 -38 135 -83 295 -162 327 -162 23 0 43 11 74 39 l42 40 0
268 c0 260 -1 269 -22 304 -33 53 -92 72 -149 49z m104 -50 c12 -11 25 -33 29
-48 5 -15 8 -133 8 -262 0 -262 -3 -274 -66 -300 -30 -13 -36 -11 -103 23 -39
20 -123 66 -186 102 -62 36 -123 65 -133 65 -11 0 -97 -43 -191 -95 -207 -115
-225 -119 -266 -75 -32 35 -40 83 -17 112 21 28 187 130 326 201 110 56 140
68 165 63 17 -4 84 -36 150 -73 94 -52 120 -63 127 -52 5 8 9 80 9 161 l0 146
31 26 c38 32 86 34 117 6z"/>
<path d="M3764 2495 c-92 -27 -425 -225 -463 -274 l-26 -34 0 -384 0 -384 42
-40 c60 -55 111 -53 181 8 l33 29 -3 332 -3 331 85 47 c152 84 258 154 285
186 37 44 31 105 -15 153 -38 39 -63 46 -116 30z m91 -49 c13 -13 27 -36 31
-50 13 -54 -35 -95 -256 -221 l-140 -79 0 -337 0 -338 -26 -20 c-39 -30 -98
-28 -128 4 -22 23 -25 39 -31 153 -4 70 -6 236 -3 370 5 222 7 246 25 270 39
53 425 272 479 272 14 0 36 -11 49 -24z"/>
<path d="M6475 2009 c-226 -130 -369 -225 -388 -257 -18 -31 -19 -67 -24 -690
l-4 -657 -147 -86 c-81 -47 -166 -103 -189 -125 -37 -35 -43 -46 -43 -81 0
-25 8 -53 23 -74 22 -32 26 -34 89 -37 60 -3 72 0 149 40 129 66 299 170 335
203 30 28 32 36 38 115 5 79 16 839 16 1136 l0 131 166 98 c91 54 176 112 190
128 27 32 31 75 12 135 -10 33 -19 41 -59 55 -26 9 -53 17 -61 17 -8 0 -54
-23 -103 -51z m155 -4 c35 -18 50 -43 50 -85 0 -43 -28 -66 -223 -181 l-162
-96 -7 -629 c-4 -346 -10 -653 -13 -682 -7 -60 -11 -63 -206 -178 -149 -87
-247 -134 -281 -134 -48 0 -87 61 -74 115 7 29 55 63 248 174 l133 77 5 671
c5 651 6 672 25 693 37 41 425 270 457 270 11 0 32 -7 48 -15z"/>
<path d="M5333 2030 c-62 -38 -65 -49 -71 -284 l-5 -213 -320 -183 c-177 -101
-329 -183 -338 -183 -10 1 -74 34 -143 73 l-125 71 -3 219 c-3 201 -5 220 -23
240 -50 56 -127 60 -186 10 l-34 -28 -3 -283 -3 -284 48 -37 c124 -94 423
-258 471 -258 36 0 149 59 492 255 313 179 375 219 404 258 20 27 21 44 24
270 4 281 -2 315 -57 353 -43 29 -85 31 -128 4z m116 -37 c30 -24 41 -109 40
-303 -1 -195 -8 -252 -39 -285 -34 -36 -639 -388 -786 -457 -57 -27 -63 -28
-100 -14 -49 17 -253 131 -361 202 l-83 54 0 272 c0 265 1 272 22 295 34 36
98 32 132 -8 l26 -31 0 -213 0 -214 143 -81 c80 -45 151 -79 163 -78 11 2 170
88 352 193 l332 190 0 80 c0 44 3 145 7 225 6 132 8 146 29 167 29 28 92 31
123 6z"/>
</g>
</svg>
