<?xml version="1.0" standalone="no"?>
<!DOCTYPE svg PUBLIC "-//W3C//DTD SVG 20010904//EN"
 "http://www.w3.org/TR/2001/REC-SVG-20010904/DTD/svg10.dtd">
<svg version="1.0" xmlns="http://www.w3.org/2000/svg"
 width="674.000000pt" height="342.000000pt" viewBox="0 0 674.000000 342.000000"
 preserveAspectRatio="xMidYMid meet">
<metadata>
Created by potrace 1.16, written by Peter Selinger 2001-2019
</metadata>
<g transform="translate(0.000000,342.000000) scale(0.100000,-0.100000)"
fill="#00E5F0" stroke="none">
<path d="M815 2854 c-652 -375 -720 -416 -751 -448 -29 -30 -33 -42 -39 -117
-4 -46 -5 -340 -3 -654 2 -461 6 -575 17 -597 19 -37 55 -60 561 -350 496
-285 577 -328 611 -328 38 0 104 35 531 280 541 312 616 357 636 388 15 24 17
79 20 632 2 333 0 630 -3 660 -6 45 -13 61 -43 90 -35 34 -217 143 -816 486
-247 141 -262 148 -320 151 l-61 3 -340 -196z m783 -603 l372 -215 0 -182 0
-183 -376 216 -376 216 -31 -16 c-18 -9 -187 -106 -377 -216 -190 -109 -348
-196 -353 -192 -4 4 -6 85 -5 180 l3 173 375 218 c206 120 380 218 385 217 6
-1 178 -98 383 -216z m-319 -331 c67 -33 608 -340 661 -374 l35 -23 -3 -114
-3 -115 -52 -29 c-28 -17 -55 -31 -58 -33 -3 -1 -148 79 -323 178 l-316 181
-131 -72 c-72 -39 -217 -120 -321 -180 l-191 -109 -63 35 -64 36 0 109 0 110
38 24 c85 55 706 406 719 406 7 0 40 -13 72 -30z m132 -589 c308 -172 311
-174 297 -187 -7 -7 -77 -49 -155 -94 l-142 -82 -93 53 c-51 29 -98 52 -103
52 -6 0 -51 -23 -99 -52 l-89 -52 -51 27 c-55 29 -258 145 -266 152 -3 2 2 8
10 13 55 34 485 279 490 279 3 0 94 -49 201 -109z"/>
</g>
<g transform="translate(0.000000,342.000000) scale(0.100000,-0.100000)"
fill="#0E546C" stroke="none">
<path d="M845 2255 c-204 -118 -374 -216 -378 -217 -12 -5 -20 -330 -9 -347 8
-11 80 26 364 189 194 112 362 209 373 216 18 11 59 -10 385 -198 201 -116
371 -212 378 -215 9 -4 12 35 12 173 l0 179 -322 185 c-177 102 -347 199 -378
217 l-55 32 -370 -214z"/>
<path d="M819 1741 l-364 -208 -3 -119 -3 -119 59 -33 c33 -17 64 -32 70 -32
5 0 81 41 168 91 247 141 461 259 473 259 8 0 454 -251 601 -338 l35 -21 62
39 61 38 -1 117 -2 118 -200 114 c-402 231 -536 303 -565 303 -18 0 -155 -73
-391 -209z"/>
<path d="M1134 1404 c-95 -50 -396 -225 -411 -238 -7 -6 -9 -16 -5 -22 7 -10
146 -94 251 -150 l53 -28 47 25 c25 13 69 37 96 53 l51 29 92 -53 c52 -29 101
-50 111 -47 29 7 301 168 301 177 0 16 -442 268 -496 284 -14 4 -44 -6 -90
-30z"/>
</g>
<g transform="translate(0.000000,342.000000) scale(0.100000,-0.100000)"
fill="#ffffff" stroke="none">
<path d="M3349 3377 l-34 -23 -3 -390 -2 -390 30 -29 c40 -38 73 -36 162 8
119 59 376 215 392 239 34 48 7 127 -52 149 -34 13 -75 -1 -205 -73 -59 -33
-110 -58 -113 -56 -2 3 -8 126 -12 273 l-7 267 -28 24 c-36 31 -83 31 -128 1z"/>
<path d="M6154 3381 c-47 -21 -223 -122 -332 -189 -44 -26 -80 -57 -90 -76
-16 -29 -17 -119 -20 -1186 -2 -680 1 -1208 6 -1285 10 -124 11 -130 38 -153
23 -20 35 -23 71 -19 27 3 54 14 69 28 l24 22 1 1151 c1 633 4 1193 8 1245 l6
95 164 98 c90 53 174 107 187 119 29 27 40 79 24 110 -31 59 -84 73 -156 40z"/>
<path d="M2949 3151 c-20 -16 -25 -32 -30 -102 -10 -113 -10 -1675 0 -1768 7
-70 9 -76 48 -110 34 -30 273 -172 380 -225 49 -25 87 -19 172 24 206 103 365
209 380 253 7 18 11 129 11 277 l0 248 -35 31 c-47 41 -93 42 -137 2 l-33 -29
-5 -221 -5 -221 -139 -80 c-76 -44 -143 -80 -150 -79 -6 0 -72 37 -146 82
l-135 82 -5 904 -5 903 -28 24 c-36 30 -104 33 -138 5z"/>
<path d="M6424 3089 c-219 -128 -294 -180 -302 -209 -4 -14 -7 -191 -7 -393
l0 -369 33 -29 c44 -39 90 -39 134 0 l33 29 3 334 4 334 83 47 c45 26 85 47
87 47 3 0 8 -70 12 -156 7 -153 7 -156 34 -180 37 -32 82 -40 120 -20 61 32
62 35 62 322 l0 262 -35 31 c-60 53 -96 46 -261 -50z"/>
<path d="M4494 2891 c-50 -27 -147 -82 -215 -123 -167 -99 -159 -80 -159 -379
0 -135 4 -249 10 -265 7 -20 32 -44 74 -71 81 -53 331 -195 373 -212 41 -17
66 -8 207 69 61 33 114 60 118 60 4 0 8 -46 8 -102 l0 -103 -123 -69 c-268
-152 -306 -192 -257 -271 25 -40 60 -57 97 -46 71 20 407 214 456 262 l27 27
0 270 0 270 -31 26 c-18 16 -43 26 -61 26 -33 0 -123 -44 -288 -139 -58 -34
-109 -61 -115 -61 -6 0 -71 35 -145 78 l-135 78 -3 171 -2 171 57 32 c185 103
312 184 322 206 15 34 14 59 -4 94 -34 66 -89 66 -211 1z"/>
<path d="M5341 2921 c-29 -22 -39 -80 -40 -238 -1 -58 -5 -103 -11 -103 -5 0
-33 14 -61 31 -96 56 -188 99 -214 99 -47 0 -403 -193 -469 -255 -20 -19 -26
-33 -26 -68 0 -36 6 -49 33 -75 18 -18 40 -32 48 -32 20 0 146 62 284 139 60
33 118 61 127 61 10 0 69 -29 131 -64 255 -145 277 -151 333 -102 27 22 28 28
35 160 5 76 4 200 0 277 -7 126 -10 142 -31 164 -30 32 -102 35 -139 6z"/>
<path d="M3734 2466 c-66 -31 -250 -136 -335 -192 -40 -26 -71 -55 -78 -72 -8
-20 -11 -135 -9 -401 l3 -373 28 -24 c40 -34 97 -33 138 4 l31 28 -1 154 c-1
85 1 236 5 336 l7 181 139 79 c221 126 261 163 244 228 -10 40 -53 76 -90 76
-17 0 -54 -11 -82 -24z"/>
<path d="M6545 2019 c-22 -12 -121 -69 -219 -128 -122 -72 -185 -116 -198
-136 -17 -28 -18 -68 -18 -691 l0 -662 -157 -88 c-189 -107 -233 -145 -233
-198 0 -30 7 -45 35 -73 40 -40 51 -40 142 2 66 30 341 189 379 220 l29 23 7
269 c3 147 7 453 7 678 l1 410 156 90 c177 103 229 143 237 182 11 60 -43 124
-105 123 -13 -1 -41 -10 -63 -21z"/>
<path d="M5339 2011 c-29 -23 -38 -95 -39 -316 l0 -160 -332 -190 c-198 -113
-342 -189 -355 -188 -13 1 -81 35 -152 75 l-129 73 -4 210 c-4 221 -10 253
-52 274 -42 22 -95 18 -124 -9 -22 -20 -22 -26 -22 -304 l0 -283 43 -30 c59
-42 251 -155 338 -199 117 -58 102 -63 489 159 348 199 452 262 479 291 22 23
25 38 32 148 8 141 2 358 -13 405 -5 18 -19 40 -31 48 -30 21 -100 19 -128 -4z"/>
</g>
</svg>
